<svg width="27" height="23" viewBox="0 0 27 23" fill="none" xmlns="http://www.w3.org/2000/svg">
<path d="M20.25 19.1667H4.5V5.75004H14.625V3.83337H4.5C3.2625 3.83337 2.25 4.69587 2.25 5.75004V19.1667C2.25 20.2209 3.2625 21.0834 4.5 21.0834H20.25C21.4875 21.0834 22.5 20.2209 22.5 19.1667V10.5417H20.25V19.1667ZM11.4862 16.1288L9.28125 13.8671L6.1875 17.25H18.5625L14.58 12.7363L11.4862 16.1288ZM22.5 3.83337V0.958374H20.25V3.83337H16.875C16.8862 3.84296 16.875 5.75004 16.875 5.75004H20.25V8.61546C20.2612 8.62504 22.5 8.61546 22.5 8.61546V5.75004H25.875V3.83337H22.5Z" fill="#525252"/>
</svg>
