<svg width="20" height="19" viewBox="0 0 20 19" fill="none" xmlns="http://www.w3.org/2000/svg">
<path d="M6.93203 4.73089L6.94921 4.82941C6.66499 4.87897 6.38279 4.74617 6.24792 4.50231L6.24787 4.50221C6.1118 4.25556 6.16189 3.95426 6.36763 3.75985L8.98615 1.28495L8.98632 1.28479C9.53206 0.771383 10.4692 0.772444 11.0126 1.28373L11.0128 1.2839L12.82 2.99262C13.2779 1.85073 14.4447 1.04066 15.8038 1.04066C17.5577 1.04066 18.9944 2.39094 18.9944 4.06219C18.9944 5.35235 18.1365 6.45181 16.938 6.88438L18.6787 8.52823L18.6788 8.52834C19.2403 9.06035 19.2403 9.9278 18.6793 10.4593L18.6792 10.4594L11.0136 17.7033L11.0135 17.7034C10.7409 17.9601 10.3809 18.1 9.9999 18.1H9.72591L9.75014 18.0796C9.46352 18.0322 9.19865 17.9035 8.98739 17.7045L8.98727 17.7044L1.32053 10.46L1.32035 10.4598C0.760133 9.92786 0.760012 9.06053 1.31921 8.52951L1.3194 8.52934L4.12789 5.87599L4.12789 5.87599L4.19657 5.94868M6.93203 4.73089C7.09279 4.70406 7.22118 4.69159 7.3364 4.69159C8.56754 4.69159 9.46651 5.63747 9.46651 6.80084C9.46651 7.9626 8.56754 8.92761 7.3364 8.92761C6.10638 8.92761 5.10568 7.96259 5.10568 6.80082C5.10568 6.6909 5.11862 6.56901 5.14728 6.4171C5.18996 6.189 5.07139 5.96064 4.85415 5.85336C4.6361 5.7458 4.36997 5.78483 4.19657 5.94868M6.93203 4.73089C6.68839 4.77338 6.44896 4.65919 6.33543 4.45391M6.93203 4.73089L6.33543 4.45391M4.19657 5.94868L1.38807 8.60203L4.19657 5.94868ZM6.33543 4.45391C6.2219 4.24811 6.26293 3.99637 6.43631 3.83253L9.05484 1.35763L6.33543 4.45391ZM10.6906 6.80108C10.6906 5.32883 9.75237 4.07994 8.34229 3.67073L9.91684 2.18287C9.91688 2.18283 9.91692 2.1828 9.91696 2.18276C9.96433 2.13836 9.98923 2.13311 10.0001 2.13311C10.011 2.13311 10.0354 2.13836 10.0818 2.18177C10.0819 2.18181 10.0819 2.18186 10.082 2.1819L12.8381 4.78761L12.8382 4.78768C13.0366 4.97492 13.3375 5.02263 13.5872 4.90994C13.7103 4.85439 13.8132 4.76366 13.8807 4.64932C13.9484 4.5349 13.977 4.40287 13.9621 4.27165L13.9622 4.27165L13.962 4.27027L13.9499 4.17547L13.9499 4.17547L13.9496 4.17344C13.9489 4.16886 13.9483 4.16442 13.9476 4.16008C13.9419 4.1218 13.9375 4.09244 13.9375 4.06253C13.9375 3.09766 14.7695 2.30316 15.8035 2.30316C16.8381 2.30316 17.6701 3.09767 17.6701 4.06253C17.6701 5.02618 16.8382 5.81977 15.8035 5.81977C15.7684 5.81977 15.735 5.81533 15.6944 5.80993C15.6873 5.80899 15.68 5.80802 15.6725 5.80703L15.6716 5.80693L15.5859 5.79658L15.5853 5.79652C15.3053 5.76431 15.0376 5.90467 14.9136 6.1463C14.7885 6.39015 14.8421 6.6819 15.0427 6.87141L15.0427 6.87143L17.7455 9.42389C17.7456 9.42393 17.7456 9.42397 17.7457 9.42402C17.7872 9.4636 17.7868 9.52484 17.7462 9.56355C17.7461 9.56358 17.7461 9.5636 17.7461 9.56363L10.0827 16.8057C10.0826 16.8058 10.0825 16.8058 10.0824 16.8059C10.0351 16.8502 10.0103 16.8554 9.99943 16.8554C9.98856 16.8554 9.96412 16.8502 9.91763 16.8067C9.9176 16.8067 9.91757 16.8067 9.91754 16.8066L2.25397 9.5647C2.25395 9.56468 2.25393 9.56466 2.25391 9.56465C2.21219 9.52489 2.21291 9.46257 2.25269 9.42455C2.25274 9.42449 2.2528 9.42444 2.25286 9.42438L4.02881 7.74671C4.45907 9.09299 5.78042 10.0895 7.33612 10.0898H7.33613C9.24157 10.0898 10.6906 8.60473 10.6906 6.80108Z" fill="#525252" stroke="#525252" stroke-width="0.2"/>
</svg>
