<svg width="10" height="10" viewBox="0 0 10 10" fill="none" xmlns="http://www.w3.org/2000/svg">
<path d="M9.375 0.936463L6.87281 0.936472V0.31366C6.87281 0.141003 6.73297 0.00115967 6.56031 0.00115967C6.38766 0.00115967 6.24781 0.141003 6.24781 0.31366V0.936316H3.74781V0.31366C3.74781 0.141003 3.60797 0.00115967 3.43531 0.00115967C3.26266 0.00115967 3.12281 0.141003 3.12281 0.31366V0.936316H0.625C0.279844 0.936316 0 1.21616 0 1.56132V9.37382C0 9.71896 0.279844 9.99882 0.625 9.99882H9.375C9.72016 9.99882 10 9.71896 10 9.37382V1.56132C10 1.21631 9.72016 0.936463 9.375 0.936463ZM9.375 9.37382H0.625V1.56132H3.12281V1.87616C3.12281 2.04881 3.26266 2.18866 3.43531 2.18866C3.60797 2.18866 3.74781 2.04881 3.74781 1.87616V1.56147H6.24781V1.87632C6.24781 2.04897 6.38766 2.18882 6.56031 2.18882C6.73297 2.18882 6.87281 2.04897 6.87281 1.87632V1.56147H9.375V9.37382ZM7.1875 4.99896H7.8125C7.985 4.99896 8.125 4.85896 8.125 4.68646V4.06146C8.125 3.88896 7.985 3.74896 7.8125 3.74896H7.1875C7.015 3.74896 6.875 3.88896 6.875 4.06146V4.68646C6.875 4.85896 7.015 4.99896 7.1875 4.99896ZM7.1875 7.49881H7.8125C7.985 7.49881 8.125 7.35896 8.125 7.18631V6.56131C8.125 6.38881 7.985 6.24881 7.8125 6.24881H7.1875C7.015 6.24881 6.875 6.38881 6.875 6.56131V7.18631C6.875 7.35912 7.015 7.49881 7.1875 7.49881ZM5.3125 6.24881H4.6875C4.515 6.24881 4.375 6.38881 4.375 6.56131V7.18631C4.375 7.35896 4.515 7.49881 4.6875 7.49881H5.3125C5.485 7.49881 5.625 7.35896 5.625 7.18631V6.56131C5.625 6.38896 5.485 6.24881 5.3125 6.24881ZM5.3125 3.74896H4.6875C4.515 3.74896 4.375 3.88896 4.375 4.06146V4.68646C4.375 4.85896 4.515 4.99896 4.6875 4.99896H5.3125C5.485 4.99896 5.625 4.85896 5.625 4.68646V4.06146C5.625 3.88881 5.485 3.74896 5.3125 3.74896ZM2.8125 3.74896H2.1875C2.015 3.74896 1.875 3.88896 1.875 4.06146V4.68646C1.875 4.85896 2.015 4.99896 2.1875 4.99896H2.8125C2.985 4.99896 3.125 4.85896 3.125 4.68646V4.06146C3.125 3.88881 2.985 3.74896 2.8125 3.74896ZM2.8125 6.24881H2.1875C2.015 6.24881 1.875 6.38881 1.875 6.56131V7.18631C1.875 7.35896 2.015 7.49881 2.1875 7.49881H2.8125C2.985 7.49881 3.125 7.35896 3.125 7.18631V6.56131C3.125 6.38896 2.985 6.24881 2.8125 6.24881Z" fill="#735AF3" fill-opacity="0.8"/>
<path d="M7.5 4.94564C7.38355 4.90449 7.27767 4.841 7.1875 4.76031C7.16154 4.73708 7.13688 4.71242 7.11365 4.68646C7.03296 4.59629 6.96947 4.49041 6.92832 4.37396C6.96947 4.25751 7.03296 4.15163 7.11365 4.06146C7.13688 4.0355 7.16154 4.01085 7.1875 3.98762C7.27767 3.90693 7.38355 3.84343 7.5 3.80229C7.61645 3.84343 7.72233 3.90693 7.8125 3.98762C7.83846 4.01085 7.86312 4.0355 7.88635 4.06146C7.96704 4.15163 8.03053 4.25752 8.07168 4.37397C8.03053 4.49041 7.96704 4.5963 7.88635 4.68646C7.86312 4.71242 7.83846 4.73708 7.8125 4.76031C7.72233 4.841 7.61645 4.90449 7.5 4.94564ZM5.3125 4.76031C5.22234 4.84099 5.11647 4.90448 5.00004 4.94562C4.8836 4.90447 4.77769 4.84097 4.6875 4.76025C4.66156 4.73704 4.63692 4.7124 4.61371 4.68646C4.533 4.5963 4.46949 4.49042 4.42833 4.37395C4.46947 4.25751 4.53296 4.15163 4.61365 4.06146C4.63688 4.0355 4.66154 4.01085 4.6875 3.98762C4.77767 3.90693 4.88355 3.84343 5 3.80229C5.11645 3.84343 5.22233 3.90693 5.3125 3.98762C5.33846 4.01085 5.36312 4.0355 5.38635 4.06146C5.46704 4.15163 5.53053 4.25751 5.57168 4.37396C5.53053 4.49041 5.46704 4.59629 5.38635 4.68646C5.36312 4.71242 5.33846 4.73708 5.3125 4.76031ZM2.8125 4.76031C2.72234 4.84099 2.61647 4.90448 2.50004 4.94562C2.3836 4.90447 2.27769 4.84097 2.1875 4.76025C2.16156 4.73704 2.13692 4.7124 2.11371 4.68646C2.033 4.5963 1.96949 4.49042 1.92833 4.37395C1.96947 4.25751 2.03296 4.15163 2.11365 4.06146C2.13688 4.0355 2.16154 4.01085 2.1875 3.98762C2.27767 3.90692 2.38355 3.84343 2.5 3.80229C2.61645 3.84343 2.72233 3.90692 2.8125 3.98762C2.83846 4.01085 2.86312 4.0355 2.88635 4.06146C2.96704 4.15163 3.03053 4.25751 3.07168 4.37396C3.03053 4.49041 2.96704 4.59629 2.88635 4.68646C2.86311 4.71242 2.83846 4.73708 2.8125 4.76031ZM2.5 6.30216C2.61643 6.34331 2.72232 6.40681 2.8125 6.48752C2.83844 6.51073 2.86308 6.53537 2.88629 6.56131C2.967 6.65147 3.03051 6.75735 3.07167 6.87382C3.03053 6.99026 2.96704 7.09614 2.88635 7.18631C2.86312 7.21227 2.83846 7.23692 2.8125 7.26015C2.72232 7.34085 2.61642 7.40435 2.49996 7.4455C2.3835 7.40436 2.27764 7.34088 2.1875 7.26021C2.16152 7.23696 2.13685 7.21229 2.1136 7.18631C2.03293 7.09614 1.96946 6.99026 1.92832 6.87383C1.96948 6.75736 2.033 6.65147 2.11371 6.56131C2.13692 6.53537 2.16156 6.51073 2.1875 6.48752C2.27768 6.40681 2.38357 6.34331 2.5 6.30216ZM5 6.30216C5.11643 6.34331 5.22232 6.40681 5.3125 6.48752C5.33844 6.51073 5.36308 6.53537 5.38629 6.56131C5.467 6.65147 5.53051 6.75735 5.57167 6.87382C5.53053 6.99026 5.46704 7.09614 5.38635 7.18631C5.36312 7.21227 5.33846 7.23692 5.3125 7.26015C5.22232 7.34085 5.11642 7.40435 4.99996 7.4455C4.8835 7.40436 4.77764 7.34088 4.6875 7.26021C4.66152 7.23696 4.63685 7.21229 4.6136 7.18631C4.53293 7.09614 4.46946 6.99026 4.42832 6.87383C4.46948 6.75736 4.533 6.65147 4.61371 6.56131C4.63692 6.53537 4.66156 6.51073 4.6875 6.48752C4.77768 6.40681 4.88357 6.34331 5 6.30216ZM7.1875 6.48752C7.27767 6.40682 7.38355 6.34333 7.49996 6.30218C7.61638 6.34334 7.72229 6.40685 7.8125 6.48758C7.83842 6.51077 7.86304 6.53539 7.88624 6.56131C7.96696 6.65146 8.0305 6.75734 8.07167 6.87383C8.03052 6.99027 7.96703 7.09615 7.88635 7.18631C7.86312 7.21227 7.83846 7.23692 7.8125 7.26015C7.72233 7.34085 7.61645 7.40434 7.5 7.44548C7.38355 7.40434 7.27767 7.34085 7.1875 7.26015C7.16154 7.23692 7.13688 7.21227 7.11365 7.18631C7.03296 7.09614 6.96947 6.99026 6.92833 6.87382C6.96949 6.75735 7.033 6.65147 7.11371 6.56131C7.13692 6.53537 7.16156 6.51073 7.1875 6.48752Z" stroke="#735AF3" stroke-opacity="0.8" stroke-width="2.5"/>
</svg>
