<svg width="27" height="27" viewBox="0 0 27 27" fill="none" xmlns="http://www.w3.org/2000/svg">
<path d="M13.5 19.6875C14.9063 19.6875 16.1018 19.1951 17.0865 18.2104C18.0713 17.2256 18.5633 16.0305 18.5625 14.625C18.5625 13.2188 18.0701 12.0233 17.0854 11.0385C16.1006 10.0538 14.9055 9.56175 13.5 9.5625C12.0938 9.5625 10.8983 10.0549 9.9135 11.0396C8.92875 12.0244 8.43675 13.2195 8.4375 14.625C8.4375 16.0312 8.92988 17.2267 9.91463 18.2115C10.8994 19.1962 12.0945 19.6882 13.5 19.6875ZM13.5 17.4375C12.7125 17.4375 12.0469 17.1656 11.5031 16.6219C10.9594 16.0781 10.6875 15.4125 10.6875 14.625C10.6875 13.8375 10.9594 13.1719 11.5031 12.6281C12.0469 12.0844 12.7125 11.8125 13.5 11.8125C14.2875 11.8125 14.9531 12.0844 15.4969 12.6281C16.0406 13.1719 16.3125 13.8375 16.3125 14.625C16.3125 15.4125 16.0406 16.0781 15.4969 16.6219C14.9531 17.1656 14.2875 17.4375 13.5 17.4375ZM4.5 23.625C3.88125 23.625 3.35138 23.4045 2.91038 22.9635C2.46938 22.5225 2.24925 21.993 2.25 21.375V7.875C2.25 7.25625 2.4705 6.72637 2.9115 6.28537C3.3525 5.84437 3.882 5.62425 4.5 5.625H8.04375L10.125 3.375H16.875L18.9563 5.625H22.5C23.1188 5.625 23.6486 5.8455 24.0896 6.2865C24.5306 6.7275 24.7508 7.257 24.75 7.875V21.375C24.75 21.9937 24.5295 22.5236 24.0885 22.9646C23.6475 23.4056 23.118 23.6257 22.5 23.625H4.5ZM4.5 21.375H22.5V7.875H17.9438L15.8906 5.625H11.1094L9.05625 7.875H4.5V21.375Z" fill="#525252"/>
</svg>
