<svg width="23" height="19" viewBox="0 0 23 19" fill="none" xmlns="http://www.w3.org/2000/svg">
<path d="M11.4837 14.7135C11.6281 14.7135 11.7592 14.692 11.8769 14.649C11.9947 14.6059 12.1073 14.5406 12.2149 14.4531C12.7927 13.9497 13.3434 13.4549 13.867 12.9688C14.3906 12.4826 14.8467 12.0052 15.2353 11.5365C15.6231 11.0677 15.9344 10.6122 16.1691 10.1698C16.4038 9.72743 16.5212 9.29757 16.5212 8.88021C16.5212 8.11632 16.2503 7.48264 15.7087 6.97917C15.167 6.47569 14.517 6.22396 13.7587 6.22396C13.2892 6.22396 12.8606 6.31528 12.4728 6.49792C12.0849 6.68055 11.7552 6.9191 11.4837 7.21354C11.2128 6.9184 10.8741 6.67986 10.4675 6.49792C10.0609 6.31597 9.64129 6.22465 9.20868 6.22396C8.45035 6.22396 7.80035 6.47569 7.25868 6.97917C6.71701 7.48264 6.44618 8.11632 6.44618 8.88021C6.44618 9.29687 6.56354 9.72674 6.79826 10.1698C7.03299 10.6128 7.34462 11.0684 7.73318 11.5365C8.12101 12.0052 8.57674 12.4826 9.10035 12.9688C9.62396 13.4549 10.1747 13.9497 10.7524 14.4531C10.8608 14.5399 10.9738 14.6052 11.0915 14.649C11.2092 14.6927 11.34 14.7142 11.4837 14.7135ZM4.98368 18.2031C4.38785 18.2031 3.8776 17.999 3.45293 17.5906C3.02826 17.1823 2.81629 16.692 2.81701 16.1198V8.4375L1.73368 9.24479C1.4809 9.4184 1.21007 9.48785 0.921181 9.45312C0.632292 9.4184 0.39757 9.27951 0.217014 9.03646C0.0364584 8.7934 -0.0314306 8.53299 0.0133472 8.25521C0.058125 7.97743 0.198236 7.75174 0.433681 7.57812L10.1566 0.416667C10.3552 0.277778 10.5675 0.173611 10.7936 0.104167C11.0197 0.0347221 11.2497 0 11.4837 0C11.7184 0 11.9488 0.0347221 12.1748 0.104167C12.4009 0.173611 12.6129 0.277778 12.8108 0.416667L22.5608 7.57812C22.7955 7.75174 22.9309 7.97743 22.967 8.25521C23.0031 8.53299 22.9309 8.7934 22.7503 9.03646C22.5698 9.26215 22.3351 9.39236 22.0462 9.42708C21.7573 9.4618 21.4955 9.39236 21.2608 9.21875L20.1503 8.4375V16.1198C20.1503 16.6927 19.9384 17.1833 19.5144 17.5917C19.0905 18 18.5802 18.2038 17.9837 18.2031H4.98368ZM4.98368 16.1198H17.9837V6.84896L11.4837 2.08333L4.98368 6.84896V16.1198Z" fill="#735AF3" fill-opacity="0.8"/>
</svg>
