<svg width="18" height="27" viewBox="0 0 18 27" fill="none" xmlns="http://www.w3.org/2000/svg">
<path d="M9 0C10.1017 0 11.1582 0.426695 11.9372 1.18622C12.7162 1.94574 13.1538 2.97587 13.1538 4.05C13.1538 5.12412 12.7162 6.15426 11.9372 6.91378C11.1582 7.6733 10.1017 8.1 9 8.1C7.89833 8.1 6.84178 7.6733 6.06279 6.91378C5.28379 6.15426 4.84615 5.12412 4.84615 4.05C4.84615 2.97587 5.28379 1.94574 6.06279 1.18622C6.84178 0.426695 7.89833 0 9 0ZM9 9.45C11.2569 9.45 13.32 9.92249 15.2308 10.8675C17.0862 11.826 18 12.9735 18 14.3235V22.113C18 23.625 16.8092 24.894 14.3862 25.9065V22.95C14.3862 21.6675 13.1954 20.763 10.8138 20.2095C10.0385 20.034 9.42923 19.953 9 19.953C7.79538 19.953 6.64615 20.1825 5.59385 20.655C4.52769 21.114 3.89077 21.708 3.68308 22.4235C5.53846 23.139 7.31077 23.5035 9 23.5035L10.3846 23.3685V26.919L9 27C7.14638 27.0025 5.31236 26.6302 3.61385 25.9065C1.19077 24.894 0 23.625 0 22.113V14.3235C0 12.9735 0.913846 11.826 2.76923 10.8675C4.68 9.92249 6.75692 9.45 9 9.45ZM9 12.15C8.26555 12.15 7.56119 12.4345 7.04186 12.9408C6.52253 13.4472 6.23077 14.1339 6.23077 14.85C6.23077 15.5661 6.52253 16.2528 7.04186 16.7592C7.56119 17.2655 8.26555 17.55 9 17.55C9.73445 17.55 10.4388 17.2655 10.9581 16.7592C11.4775 16.2528 11.7692 15.5661 11.7692 14.85C11.7692 14.1339 11.4775 13.4472 10.9581 12.9408C10.4388 12.4345 9.73445 12.15 9 12.15Z" fill="#8F7BF5"/>
</svg>
