<svg width="19" height="19" viewBox="0 0 19 19" fill="none" xmlns="http://www.w3.org/2000/svg">
<path fill-rule="evenodd" clip-rule="evenodd" d="M9.375 0C9.89277 0 10.3125 0.419733 10.3125 0.9375V8.4375H17.8125C18.3303 8.4375 18.75 8.85723 18.75 9.375C18.75 9.89277 18.3303 10.3125 17.8125 10.3125H10.3125V17.8125C10.3125 18.3303 9.89277 18.75 9.375 18.75C8.85723 18.75 8.4375 18.3303 8.4375 17.8125V10.3125H0.9375C0.419733 10.3125 0 9.89277 0 9.375C0 8.85723 0.419733 8.4375 0.9375 8.4375H8.4375V0.9375C8.4375 0.419733 8.85723 0 9.375 0Z" fill="#A4A4A4"/>
</svg>
