<svg width="17" height="17" viewBox="0 0 17 17" fill="none" xmlns="http://www.w3.org/2000/svg">
<path d="M9.07328 10.81L5.61328 11.4328L6.18995 7.92668L12.7985 1.34115C12.9058 1.23305 13.0333 1.14725 13.1739 1.0887C13.3144 1.03015 13.4651 1 13.6174 1C13.7697 1 13.9204 1.03015 14.0609 1.0887C14.2015 1.14725 14.3291 1.23305 14.4363 1.34115L15.6588 2.56369C15.7669 2.6709 15.8527 2.79846 15.9113 2.93901C15.9698 3.07955 16 3.2303 16 3.38255C16 3.5348 15.9698 3.68555 15.9113 3.8261C15.8527 3.96664 15.7669 4.0942 15.6588 4.20142L9.07328 10.81Z" stroke="#8B8B8B" stroke-width="1.4" stroke-linecap="round" stroke-linejoin="round"/>
<path d="M14.2633 11.3868V14.8468C14.2633 15.1527 14.1418 15.446 13.9255 15.6623C13.7092 15.8786 13.4159 16.0001 13.11 16.0001H2.15333C1.84745 16.0001 1.55409 15.8786 1.3378 15.6623C1.12151 15.446 1 15.1527 1 14.8468V3.89015C1 3.58427 1.12151 3.29091 1.3378 3.07462C1.55409 2.85833 1.84745 2.73682 2.15333 2.73682H5.61333" stroke="#8B8B8B" stroke-width="1.4" stroke-linecap="round" stroke-linejoin="round"/>
</svg>
