<svg width="17" height="18" viewBox="0 0 17 18" fill="none" xmlns="http://www.w3.org/2000/svg">
<path id="Vector" d="M17 10.35C17 11.934 15.895 13.248 14.45 13.464V16.2C14.45 16.6774 14.2709 17.1352 13.9521 17.4728C13.6333 17.8104 13.2009 18 12.75 18H9.52V17.73C9.52 17.0855 9.27821 16.4674 8.84781 16.0117C8.41741 15.556 7.83367 15.3 7.225 15.3C5.95 15.3 4.93 16.389 4.93 17.73V18H1.7C1.24913 18 0.81673 17.8104 0.497918 17.4728C0.179107 17.1352 0 16.6774 0 16.2V12.78H0.255C1.5215 12.78 2.55 11.7 2.55 10.35C2.55 9 1.5215 7.92 0.255 7.92H0V4.5C0 4.02261 0.179107 3.56477 0.497918 3.22721C0.81673 2.88964 1.24913 2.7 1.7 2.7H4.284C4.488 1.17 5.729 0 7.225 0C8.721 0 9.962 1.17 10.166 2.7H12.75C13.2009 2.7 13.6333 2.88964 13.9521 3.22721C14.2709 3.56477 14.45 4.02261 14.45 4.5V7.236C15.895 7.452 17 8.766 17 10.35ZM12.75 11.7H14.025C14.3632 11.7 14.6875 11.5578 14.9266 11.3046C15.1657 11.0514 15.3 10.708 15.3 10.35C15.3 9.99196 15.1657 9.64858 14.9266 9.39541C14.6875 9.14223 14.3632 9 14.025 9H12.75V4.5H8.5V3.15C8.5 2.79196 8.36567 2.44858 8.12656 2.19541C7.88745 1.94223 7.56315 1.8 7.225 1.8C6.88685 1.8 6.56255 1.94223 6.32344 2.19541C6.08433 2.44858 5.95 2.79196 5.95 3.15V4.5H1.7V6.408C3.196 7.02 4.25 8.55 4.25 10.35C4.25 12.15 3.1875 13.68 1.7 14.292V16.2H3.502C3.79327 15.4051 4.30461 14.7219 4.96898 14.2401C5.63335 13.7583 6.41973 13.5003 7.225 13.5C8.925 13.5 10.37 14.625 10.948 16.2H12.75V11.7Z" fill="#525252"/>
</svg>
