<svg width="20" height="20" viewBox="0 0 20 20" fill="none" xmlns="http://www.w3.org/2000/svg">
<path d="M9.76198 19.192C14.9415 19.1915 19.161 15.0869 19.161 10C19.161 4.9131 14.9415 0.808508 9.76196 0.808C8.3621 0.80276 6.97851 1.10823 5.71098 1.70239C4.44338 2.29657 3.32345 3.16466 2.43195 4.24404C2.40205 4.27972 2.35948 4.30243 2.31318 4.30739C2.26662 4.31238 2.21996 4.29904 2.18308 4.27019L2.18309 4.27018L2.18049 4.26818C2.1652 4.25638 2.15244 4.24162 2.14297 4.22479C2.1335 4.20796 2.12752 4.1894 2.12537 4.1702C2.12322 4.15101 2.12495 4.13158 2.13047 4.11307C2.13598 4.09456 2.14516 4.07735 2.15746 4.06247L2.15831 4.06143C3.99389 1.82756 6.76289 0.5 9.76 0.5C15.1521 0.5 19.5 4.76421 19.5 10C19.5 15.2358 15.1511 19.5 9.76 19.5C6.72017 19.5 3.91305 18.1315 2.08037 15.8416L2.07981 15.8409C2.06772 15.8258 2.05879 15.8085 2.05353 15.7899C2.04827 15.7714 2.04679 15.7519 2.04919 15.7328C2.05159 15.7136 2.05781 15.6952 2.06749 15.6785C2.07717 15.6618 2.0901 15.6472 2.10552 15.6356L2.10553 15.6356L2.10775 15.6339C2.14498 15.6056 2.19177 15.5929 2.23822 15.5985C2.28467 15.604 2.32711 15.6275 2.35657 15.6638L2.745 15.349L2.35545 15.6624C3.24594 16.7692 4.37424 17.6611 5.65661 18.2722C6.93868 18.883 8.34183 19.1974 9.76198 19.192ZM9.76198 19.192C9.76165 19.192 9.76133 19.192 9.761 19.192V18.692L9.76296 19.192C9.76264 19.192 9.76231 19.192 9.76198 19.192ZM9.94774 7.21181L9.94772 7.21183L9.95145 7.21555L12.6584 9.92255C12.7331 9.99722 12.7224 10.0985 12.6694 10.1514L12.6693 10.1516L10.029 12.7939C10.014 12.8082 9.99649 12.8195 9.97729 12.8272C9.95752 12.8351 9.93639 12.8391 9.91509 12.8388C9.89379 12.8386 9.87275 12.8341 9.85318 12.8258C9.8336 12.8174 9.81587 12.8052 9.801 12.7899L9.8011 12.7898L9.79244 12.7814C9.7772 12.7665 9.76505 12.7488 9.75669 12.7292C9.74832 12.7096 9.74389 12.6885 9.74366 12.6672C9.74344 12.6459 9.74741 12.6248 9.75536 12.605C9.76312 12.5858 9.77451 12.5682 9.78891 12.5532L11.3337 11.0074L12.1867 10.1539L10.98 10.154L0.669952 10.155V10.155L0.663929 10.155C0.642633 10.1553 0.621497 10.1514 0.601729 10.1434C0.58196 10.1355 0.563946 10.1238 0.548717 10.1089C0.533487 10.094 0.521343 10.0763 0.51298 10.0567C0.504977 10.0379 0.500584 10.0179 0.500025 9.9975C0.501468 9.92457 0.565952 9.846 0.67 9.846H10.938H12.1446L11.2917 8.99256L9.73367 7.43356L9.73369 7.43354L9.72944 7.42938C9.7142 7.41449 9.70205 7.39675 9.69368 7.37716C9.68532 7.35758 9.68089 7.33654 9.68067 7.31524C9.68044 7.29394 9.68441 7.27281 9.69236 7.25305C9.6996 7.23505 9.71001 7.21852 9.72308 7.20422C9.75332 7.17675 9.7929 7.16167 9.83389 7.16215C9.87487 7.16264 9.91638 7.17978 9.94774 7.21181Z" fill="#606060" stroke="#606060"/>
</svg>
