<svg width="16" height="16" viewBox="0 0 16 16" fill="none" xmlns="http://www.w3.org/2000/svg">
<path d="M15.6372 7.81621L8.84499 0.650389L8.38972 0.169822C8.28599 0.0610482 8.14571 0 7.99949 0C7.85327 0 7.71299 0.0610482 7.60925 0.169822L0.361792 7.81621C0.255499 7.92797 0.171493 8.06108 0.114735 8.20767C0.0579761 8.35426 0.0296141 8.51137 0.0313229 8.66973C0.0383541 9.32285 0.553393 9.84424 1.17214 9.84424H1.91921V15.8875H14.0798V9.84424H14.8427C15.1432 9.84424 15.4262 9.71992 15.6389 9.49541C15.7437 9.38522 15.8267 9.25419 15.8831 9.10991C15.9395 8.96563 15.9682 8.81097 15.9677 8.65488C15.9677 8.33945 15.8499 8.04072 15.6372 7.81621ZM8.98386 14.5516H7.01511V10.7664H8.98386V14.5516ZM12.8141 8.5083V14.5516H10.1089V10.3211C10.1089 9.91103 9.79421 9.57891 9.40574 9.57891H6.59324C6.20476 9.57891 5.89011 9.91103 5.89011 10.3211V14.5516H3.18484V8.5083H1.49734L8.00124 1.64863L8.4073 2.07724L14.5034 8.5083H12.8141Z" fill="#525252"/>
</svg>
