<svg width="128" height="27" viewBox="0 0 128 27" fill="none" xmlns="http://www.w3.org/2000/svg">
<path d="M13.43 14.54C13.29 14.56 13.03 14.57 12.65 14.57C12.27 14.57 11.99 14.5 11.81 14.36C11.67 14.22 11.6 13.88 11.6 13.34C11.6 12.8 11.65 12.39 11.75 12.11C11.85 11.81 12.16 11.66 12.68 11.66C13.22 11.66 13.73 11.79 14.21 12.05C14.79 11.61 15.33 10.93 15.83 10.01C16.33 9.09 16.58 8.14 16.58 7.16C16.58 5.74 16.15 4.7 15.29 4.04C14.45 3.38 13.14 3.05 11.36 3.05C8.8 3.05 6.7 3.55 5.06 4.55C3.44 5.55 2.63 6.61 2.63 7.73C2.63 8.27 2.85 8.72 3.29 9.08C3.73 9.42 4.17 9.65 4.61 9.77C4.53 10.57 4.28 11.31 3.86 11.99C3.08 11.87 2.35 11.47 1.67 10.79C0.99 10.09 0.65 9.15 0.65 7.97C0.65 6.01 1.78 4.4 4.04 3.14C6.3 1.88 9.1 1.25 12.44 1.25C15.12 1.25 17.24 1.75 18.8 2.75C20.36 3.75 21.14 5.22 21.14 7.16C21.14 8.52 20.63 9.75 19.61 10.85C18.59 11.93 17.36 12.82 15.92 13.52C16.26 13.86 16.56 14.34 16.82 14.96C17.1 15.58 17.32 16.09 17.48 16.49C17.66 16.87 17.8 17.18 17.9 17.42C18 17.66 18.14 18 18.32 18.44C19.1 20.56 19.8 22.12 20.42 23.12C21.06 24.14 21.67 24.65 22.25 24.65C22.37 24.65 22.46 24.64 22.52 24.62L22.82 25.7C21.84 26.48 20.72 26.87 19.46 26.87C18.2 26.87 17.31 26.54 16.79 25.88C16.27 25.24 15.79 23.91 15.35 21.89C15.29 21.69 15.12 20.96 14.84 19.7C14.28 17.02 13.81 15.3 13.43 14.54ZM7.64 7.34C7.64 6.88 7.4 6.38 6.92 5.84L6.95 5.63C8.01 5.01 9.33 4.7 10.91 4.7C11.53 4.7 11.99 4.75 12.29 4.85C12.39 5.07 12.44 5.38 12.44 5.78C12.44 6.66 11.92 9.18 10.88 13.34C9.86 17.5 9.26 20.61 9.08 22.67C7.9 23.01 6.59 23.18 5.15 23.18C4.81 23.18 4.56 23.15 4.4 23.09C4.5 21.81 5.06 19.2 6.08 15.26C7.12 11.3 7.64 8.66 7.64 7.34ZM21.7937 17.81C21.7937 15.31 22.5437 13.34 24.0437 11.9C25.5637 10.44 27.2837 9.71 29.2037 9.71C30.3837 9.71 31.3537 10 32.1137 10.58C32.8737 11.16 33.2537 11.94 33.2537 12.92C33.2537 13.88 33.0037 14.69 32.5037 15.35C32.0237 16.01 31.4337 16.52 30.7337 16.88C29.3137 17.58 28.0137 18.02 26.8337 18.2L26.1137 18.29C26.2537 20.17 27.0237 21.11 28.4237 21.11C28.9037 21.11 29.4137 20.99 29.9537 20.75C30.4937 20.51 30.9137 20.27 31.2137 20.03L31.6637 19.67L32.3837 20.63C32.2237 20.85 31.9037 21.14 31.4237 21.5C30.9437 21.86 30.4937 22.16 30.0737 22.4C28.9137 23.04 27.6437 23.36 26.2637 23.36C24.8837 23.36 23.7937 22.87 22.9937 21.89C22.1937 20.91 21.7937 19.55 21.7937 17.81ZM26.0837 16.82C27.1037 16.64 27.9137 16.21 28.5137 15.53C29.1137 14.85 29.4137 13.97 29.4137 12.89C29.4137 11.81 29.0937 11.27 28.4537 11.27C27.6937 11.27 27.1037 11.92 26.6837 13.22C26.2837 14.5 26.0837 15.7 26.0837 16.82ZM34.7061 23.09H34.1361C34.1361 22.15 34.4161 20.35 34.9761 17.69C35.5561 15.03 35.8461 13.52 35.8461 13.16C35.8461 12.5 35.5661 11.8 35.0061 11.06L34.7361 10.7L34.7661 10.31C35.8461 10.01 37.5761 9.86 39.9561 9.86C40.2361 10.24 40.3761 10.86 40.3761 11.72C42.1761 10.38 43.6061 9.71 44.6661 9.71C46.0061 9.71 46.7961 10.4 47.0361 11.78C47.5761 11.34 48.2761 10.89 49.1361 10.43C50.0161 9.95 50.7961 9.71 51.4761 9.71C52.1761 9.71 52.7561 9.94 53.2161 10.4C53.6761 10.84 53.9061 11.46 53.9061 12.26C53.9061 13.06 53.6861 14.38 53.2461 16.22C52.8061 18.06 52.5861 19.3 52.5861 19.94C52.5861 20.56 52.6761 20.87 52.8561 20.87C52.9761 20.87 53.3861 20.68 54.0861 20.3L54.4161 20.12L54.9561 21.17C54.4361 21.69 53.7261 22.19 52.8261 22.67C51.9461 23.13 51.1661 23.36 50.4861 23.36C48.9861 23.36 48.2361 22.51 48.2361 20.81C48.2361 20.19 48.4461 18.95 48.8661 17.09C49.3061 15.21 49.5261 13.99 49.5261 13.43C49.5261 12.85 49.3561 12.56 49.0161 12.56C48.4361 12.56 47.7761 12.78 47.0361 13.22C46.9961 13.62 46.7161 14.98 46.1961 17.3C45.6961 19.62 45.4461 21.42 45.4461 22.7C44.8661 22.96 43.5061 23.09 41.3661 23.09C41.3261 22.87 41.3061 22.34 41.3061 21.5C41.3061 20.66 41.5361 19.23 41.9961 17.21C42.4761 15.19 42.7161 13.91 42.7161 13.37C42.7161 12.83 42.5261 12.56 42.1461 12.56C41.5461 12.56 40.8861 12.8 40.1661 13.28C40.1261 13.46 39.9261 14.34 39.5661 15.92C38.8461 19.08 38.4861 21.33 38.4861 22.67C37.7861 22.95 36.5261 23.09 34.7061 23.09ZM55.8073 17.81C55.8073 15.31 56.5573 13.34 58.0573 11.9C59.5773 10.44 61.2973 9.71 63.2173 9.71C64.3973 9.71 65.3673 10 66.1273 10.58C66.8873 11.16 67.2673 11.94 67.2673 12.92C67.2673 13.88 67.0173 14.69 66.5173 15.35C66.0373 16.01 65.4473 16.52 64.7473 16.88C63.3273 17.58 62.0273 18.02 60.8473 18.2L60.1273 18.29C60.2673 20.17 61.0373 21.11 62.4373 21.11C62.9173 21.11 63.4273 20.99 63.9673 20.75C64.5073 20.51 64.9273 20.27 65.2273 20.03L65.6773 19.67L66.3973 20.63C66.2373 20.85 65.9173 21.14 65.4373 21.5C64.9573 21.86 64.5073 22.16 64.0873 22.4C62.9273 23.04 61.6573 23.36 60.2773 23.36C58.8973 23.36 57.8073 22.87 57.0073 21.89C56.2073 20.91 55.8073 19.55 55.8073 17.81ZM60.0973 16.82C61.1173 16.64 61.9273 16.21 62.5273 15.53C63.1273 14.85 63.4273 13.97 63.4273 12.89C63.4273 11.81 63.1073 11.27 62.4673 11.27C61.7073 11.27 61.1173 11.92 60.6973 13.22C60.2973 14.5 60.0973 15.7 60.0973 16.82ZM68.7198 23.09H68.1498C68.1498 22.15 68.4298 20.35 68.9898 17.69C69.5698 15.03 69.8598 13.52 69.8598 13.16C69.8598 12.5 69.5798 11.8 69.0198 11.06L68.7498 10.7L68.7798 10.31C69.8598 10.01 71.5898 9.86 73.9698 9.86C74.2498 10.24 74.3898 10.86 74.3898 11.72C76.1898 10.38 77.6198 9.71 78.6798 9.71C80.0198 9.71 80.8098 10.4 81.0498 11.78C81.5898 11.34 82.2898 10.89 83.1498 10.43C84.0298 9.95 84.8098 9.71 85.4898 9.71C86.1898 9.71 86.7698 9.94 87.2298 10.4C87.6898 10.84 87.9198 11.46 87.9198 12.26C87.9198 13.06 87.6998 14.38 87.2598 16.22C86.8198 18.06 86.5998 19.3 86.5998 19.94C86.5998 20.56 86.6898 20.87 86.8698 20.87C86.9898 20.87 87.3998 20.68 88.0998 20.3L88.4298 20.12L88.9698 21.17C88.4498 21.69 87.7398 22.19 86.8398 22.67C85.9598 23.13 85.1798 23.36 84.4998 23.36C82.9998 23.36 82.2498 22.51 82.2498 20.81C82.2498 20.19 82.4598 18.95 82.8798 17.09C83.3198 15.21 83.5398 13.99 83.5398 13.43C83.5398 12.85 83.3698 12.56 83.0298 12.56C82.4498 12.56 81.7898 12.78 81.0498 13.22C81.0098 13.62 80.7298 14.98 80.2098 17.3C79.7098 19.62 79.4598 21.42 79.4598 22.7C78.8798 22.96 77.5198 23.09 75.3798 23.09C75.3398 22.87 75.3198 22.34 75.3198 21.5C75.3198 20.66 75.5498 19.23 76.0098 17.21C76.4898 15.19 76.7298 13.91 76.7298 13.37C76.7298 12.83 76.5398 12.56 76.1598 12.56C75.5598 12.56 74.8998 12.8 74.1798 13.28C74.1398 13.46 73.9398 14.34 73.5798 15.92C72.8598 19.08 72.4998 21.33 72.4998 22.67C71.7998 22.95 70.5398 23.09 68.7198 23.09ZM97.711 2.06C97.711 3.58 97.201 6.56 96.181 11C97.381 10.14 98.461 9.71 99.421 9.71C100.401 9.71 101.231 10.12 101.911 10.94C102.611 11.74 102.961 12.97 102.961 14.63C102.961 17.41 102.411 19.56 101.311 21.08C100.231 22.6 98.911 23.36 97.351 23.36C96.771 23.36 96.181 23.29 95.581 23.15C95.001 23.01 94.561 22.86 94.261 22.7L93.811 22.49C92.531 22.93 91.281 23.15 90.061 23.15C89.941 23.05 89.881 22.57 89.881 21.71C89.881 20.83 90.441 17.95 91.561 13.07C92.681 8.17 93.241 4.82 93.241 3.02C93.241 2.7 93.191 2.29 93.091 1.79C94.651 1.25 96.141 0.979999 97.561 0.979999C97.661 1.26 97.711 1.62 97.711 2.06ZM97.441 12.26C97.061 12.26 96.491 12.44 95.731 12.8C94.811 16.68 94.311 19.46 94.231 21.14C94.831 21.4 95.401 21.53 95.941 21.53C96.701 21.53 97.331 20.83 97.831 19.43C98.351 18.03 98.611 16.49 98.611 14.81C98.611 13.11 98.221 12.26 97.441 12.26ZM104.235 17.81C104.235 15.31 104.985 13.34 106.485 11.9C108.005 10.44 109.725 9.71 111.645 9.71C112.825 9.71 113.795 10 114.555 10.58C115.315 11.16 115.695 11.94 115.695 12.92C115.695 13.88 115.445 14.69 114.945 15.35C114.465 16.01 113.875 16.52 113.175 16.88C111.755 17.58 110.455 18.02 109.275 18.2L108.555 18.29C108.695 20.17 109.465 21.11 110.865 21.11C111.345 21.11 111.855 20.99 112.395 20.75C112.935 20.51 113.355 20.27 113.655 20.03L114.105 19.67L114.825 20.63C114.665 20.85 114.345 21.14 113.865 21.5C113.385 21.86 112.935 22.16 112.515 22.4C111.355 23.04 110.085 23.36 108.705 23.36C107.325 23.36 106.235 22.87 105.435 21.89C104.635 20.91 104.235 19.55 104.235 17.81ZM108.525 16.82C109.545 16.64 110.355 16.21 110.955 15.53C111.555 14.85 111.855 13.97 111.855 12.89C111.855 11.81 111.535 11.27 110.895 11.27C110.135 11.27 109.545 11.92 109.125 13.22C108.725 14.5 108.525 15.7 108.525 16.82ZM116.938 23.09H116.728C116.688 22.93 116.668 22.57 116.668 22.01C116.668 21.43 116.938 19.89 117.478 17.39C118.018 14.89 118.288 13.46 118.288 13.1C118.288 12.48 118.008 11.8 117.448 11.06L117.178 10.7L117.208 10.31C118.288 10.01 120.018 9.86 122.398 9.86C122.638 10.38 122.758 11.11 122.758 12.05C122.978 11.69 123.438 11.21 124.138 10.61C124.838 10.01 125.558 9.71 126.298 9.71C127.378 9.71 127.918 10.65 127.918 12.53C127.818 12.65 127.678 12.81 127.498 13.01C127.338 13.19 126.998 13.45 126.478 13.79C125.978 14.13 125.488 14.34 125.008 14.42C124.988 14.42 124.818 14.15 124.498 13.61C124.178 13.07 123.938 12.8 123.778 12.8C123.278 12.98 122.838 13.28 122.458 13.7C121.538 17.84 121.078 20.52 121.078 21.74C121.078 22.18 121.088 22.49 121.108 22.67C120.408 22.95 119.018 23.09 116.938 23.09Z" fill="#735AF3"/>
</svg>
